<svg width="23" height="30" viewBox="0 0 23 30" fill="none" xmlns="http://www.w3.org/2000/svg">
<path d="M17.9225 9.49938C14.8379 9.76476 13.0818 11.5199 11.9308 13.9566C11.3652 15.1508 11.1613 16.4234 11.0692 17.7141C11.0626 17.7623 11.0626 17.8106 11.1021 17.8528C10.9574 16.9964 10.8719 16.1278 10.6483 15.2955C10.155 13.4318 9.18159 11.8154 7.4847 10.6272C6.50472 9.9457 5.82071 9.72857 4.14355 9.5235C4.51187 9.47525 4.82099 9.44509 5.12354 9.39081C6.80069 9.07718 8.06349 8.17851 9.05005 6.94208C10.2865 5.39805 10.8653 3.63689 10.9969 1.74305C11.01 1.55607 10.9969 1.36307 10.9969 1.18213C11.1547 2.05668 11.2534 2.94932 11.4901 3.8118C11.9571 5.53677 12.8582 7.04461 14.3643 8.20866C15.3903 8.99877 16.5808 9.43303 17.9225 9.49938Z" fill="#1B1B1B"/>
<path d="M6.16274 30C6.10355 29.4511 6.07066 28.9023 5.98516 28.3595C5.77469 27.0205 5.30772 25.7599 4.49217 24.6321C3.51218 23.2811 2.23623 22.3402 0.40123 22.1834C0.690621 22.1411 0.986589 22.111 1.27598 22.0446C2.62428 21.731 3.59768 20.9409 4.3672 19.9276C5.37349 18.6128 5.87335 17.1291 6.06408 15.5428C6.11012 15.1568 6.12328 14.7648 6.18905 14.3727C6.22193 14.7587 6.23509 15.1448 6.28113 15.5247C6.47844 17.2014 7.02434 18.7696 8.14244 20.1267C9.09611 21.2847 10.3063 22.0808 11.9637 22.1773C11.0561 22.2618 10.2274 22.5211 9.49074 23.0096C8.30029 23.8058 7.53735 24.8914 6.99803 26.1279C6.49159 27.2979 6.24166 28.5163 6.21536 29.7708" fill="#1B1B1B"/>
<path d="M18.2448 13.2871C18.304 14.1978 18.475 15.0905 18.8564 15.9469C19.159 16.6225 19.5668 17.2316 20.1784 17.7202C20.6586 18.1062 21.2242 18.3293 21.9542 18.4138C19.9943 18.7214 19.1721 19.9578 18.6657 21.4294C18.4289 22.111 18.3632 22.8408 18.2514 23.3715C18.1987 23.0338 18.1395 22.5091 18.0277 21.9904C17.837 21.1218 17.4753 20.3197 16.8636 19.6261C16.3045 18.9867 15.614 18.5344 14.6405 18.456C14.7129 18.4198 14.7392 18.3957 14.7721 18.3896C16.0217 18.2208 16.7847 17.4789 17.3569 16.532C17.9422 15.573 18.1593 14.5235 18.2316 13.4379C18.2382 13.3836 18.2448 13.3354 18.2448 13.2871Z" fill="#1B1B1B"/>
<path d="M2.02574 5.44029C1.80869 4.24608 1.5193 3.10615 0 2.75633C1.5193 2.41254 1.80869 1.26659 2.01258 0C2.17043 1.27865 2.49929 2.37636 4.03174 2.76839C3.32142 2.8649 2.85445 3.23884 2.52559 3.7696C2.20332 4.28227 2.05204 4.84318 2.02574 5.44029Z" fill="#1B1B1B"/>
<path d="M21.0269 10.1507C20.8164 8.88416 20.5336 7.74423 19.0077 7.40045C20.5139 7.05666 20.8164 5.92879 21.0203 4.65015C21.1913 5.92276 21.5136 7.0265 23 7.39442C21.5136 7.77439 21.1847 8.8721 21.0269 10.1507Z" fill="#1B1B1B"/>
</svg>
