<svg width="47" height="46" viewBox="0 0 47 46" fill="none" xmlns="http://www.w3.org/2000/svg">
<circle cx="37.5" cy="9" r="9" fill="black"/>
<path d="M18.5 45L17.5002 45.0217L19.4973 45.0739L18.5 45ZM1.19267 15.7278C1.6728 16.0007 2.28328 15.8327 2.55621 15.3526C2.82914 14.8725 2.66116 14.262 2.18103 13.9891L1.19267 15.7278ZM5.44795 16.1742C5.0101 15.8376 4.38228 15.9196 4.04567 16.3575C3.70906 16.7953 3.79114 17.4232 4.22899 17.7598L5.44795 16.1742ZM7.01003 20.1694C7.40627 20.5541 8.03937 20.5447 8.42409 20.1485C8.80881 19.7522 8.79946 19.1191 8.40322 18.7344L7.01003 20.1694ZM11.0485 21.5998C10.6964 21.1743 10.066 21.1147 9.64051 21.4668C9.21499 21.8189 9.15544 22.4492 9.50751 22.8748L11.0485 21.5998ZM11.7006 25.837C12.0049 26.298 12.6252 26.425 13.0861 26.1208C13.547 25.8165 13.674 25.1962 13.3698 24.7353L11.7006 25.837ZM15.34 28.1015C15.0871 27.6105 14.4841 27.4175 13.9931 27.6704C13.5021 27.9233 13.3091 28.5264 13.562 29.0173L15.34 28.1015ZM15.0716 32.3794C15.2706 32.8946 15.8495 33.1509 16.3647 32.9519C16.8799 32.753 17.1363 32.174 16.9373 31.6588L15.0716 32.3794ZM18.1488 35.3666C18.0049 34.8334 17.456 34.5178 16.9228 34.6616C16.3896 34.8055 16.074 35.3544 16.2178 35.8876L18.1488 35.3666ZM16.9963 39.493C17.0857 40.038 17.6 40.4074 18.145 40.318C18.69 40.2286 19.0593 39.7143 18.9699 39.1693L16.9963 39.493ZM19.4137 43.0353C19.3767 42.4843 18.9 42.0676 18.349 42.1046C17.7979 42.1416 17.3812 42.6183 17.4182 43.1693L19.4137 43.0353ZM19.6866 43.1238C19.7514 42.5753 19.3593 42.0782 18.8108 42.0134C18.2623 41.9486 17.7652 42.3407 17.7004 42.8892L19.6866 43.1238ZM18.3223 38.8514C18.2203 39.3942 18.5776 39.9169 19.1204 40.0189C19.6632 40.1209 20.1859 39.7635 20.2879 39.2208L18.3223 38.8514ZM21.137 35.3631C21.2723 34.8276 20.9478 34.2839 20.4124 34.1486C19.8769 34.0133 19.3332 34.3378 19.1979 34.8732L21.137 35.3631ZM20.3216 30.9523C20.1523 31.478 20.4411 32.0414 20.9668 32.2107C21.4925 32.3801 22.0559 32.0912 22.2253 31.5655L20.3216 30.9523ZM23.5648 27.8569C23.7713 27.3447 23.5235 26.762 23.0113 26.5555C22.4991 26.349 21.9164 26.5967 21.7099 27.1089L23.5648 27.8569ZM23.3965 23.3737C23.1477 23.8668 23.3456 24.4682 23.8386 24.7171C24.3317 24.9659 24.9331 24.768 25.182 24.275L23.3965 23.3737ZM27.1144 20.8746C27.4124 20.4096 27.2769 19.7911 26.8119 19.4932C26.3469 19.1952 25.7284 19.3307 25.4304 19.7957L27.1144 20.8746ZM27.8735 16.4538C27.5188 16.8772 27.5744 17.5079 27.9978 17.8626C28.4211 18.2172 29.0518 18.1616 29.4065 17.7382L27.8735 16.4538ZM32.0988 14.985C32.5162 14.6235 32.5616 13.992 32.2001 13.5745C31.8385 13.157 31.207 13.1116 30.7895 13.4732L32.0988 14.985ZM34.2107 11.0347C33.7313 11.3089 33.565 11.9199 33.8393 12.3993C34.1135 12.8786 34.7245 13.0449 35.2038 12.7706L34.2107 11.0347ZM-0.406138 14.9138C0.0812427 15.1304 0.618015 15.4011 1.19267 15.7278L2.18103 13.9891C1.55485 13.6331 0.959325 13.332 0.406138 13.0862L-0.406138 14.9138ZM4.22899 17.7598C5.13607 18.4571 6.07305 19.2596 7.01003 20.1694L8.40322 18.7344C7.41016 17.7702 6.41489 16.9175 5.44795 16.1742L4.22899 17.7598ZM9.50751 22.8748C10.2629 23.7877 10.9995 24.7748 11.7006 25.837L13.3698 24.7353C12.6277 23.611 11.848 22.5662 11.0485 21.5998L9.50751 22.8748ZM13.562 29.0173C14.1086 30.0784 14.6156 31.1988 15.0716 32.3794L16.9373 31.6588C16.455 30.41 15.9185 29.2245 15.34 28.1015L13.562 29.0173ZM16.2178 35.8876C16.5288 37.0403 16.7911 38.2419 16.9963 39.493L18.9699 39.1693C18.7537 37.8514 18.4772 36.584 18.1488 35.3666L16.2178 35.8876ZM17.4182 43.1693C17.459 43.7764 17.4866 44.3939 17.5002 45.0217L19.4998 44.9783C19.4855 44.3203 19.4565 43.6727 19.4137 43.0353L17.4182 43.1693ZM19.4973 45.0739C19.5419 44.4713 19.6045 43.8187 19.6866 43.1238L17.7004 42.8892C17.6151 43.611 17.5497 44.2926 17.5027 44.9261L19.4973 45.0739ZM20.2879 39.2208C20.5194 37.9888 20.8008 36.6938 21.137 35.3631L19.1979 34.8732C18.8513 36.2454 18.5611 37.5806 18.3223 38.8514L20.2879 39.2208ZM22.2253 31.5655C22.6232 30.33 23.0686 29.0874 23.5648 27.8569L21.7099 27.1089C21.1944 28.3873 20.7329 29.6751 20.3216 30.9523L22.2253 31.5655ZM25.182 24.275C25.7735 23.1031 26.4166 21.9637 27.1144 20.8746L25.4304 19.7957C24.6922 20.9478 24.0156 22.1473 23.3965 23.3737L25.182 24.275ZM29.4065 17.7382C30.2434 16.7393 31.1399 15.8154 32.0988 14.985L30.7895 13.4732C29.7422 14.3801 28.7717 15.3816 27.8735 16.4538L29.4065 17.7382ZM35.2038 12.7706C35.7524 12.4568 36.3179 12.1712 36.9008 11.9162L36.0992 10.0838C35.4489 10.3683 34.8196 10.6863 34.2107 11.0347L35.2038 12.7706Z" fill="black"/>
</svg>
