<svg width="39" height="20" viewBox="0 0 39 20" fill="none" xmlns="http://www.w3.org/2000/svg">
<rect x="19" width="20" height="20" fill="black"/>
<path d="M0.571429 10.8571H15.4286C15.5801 10.8571 15.7255 10.7969 15.8326 10.6898C15.9398 10.5826 16 10.4373 16 10.2857V9.14286C16 8.9913 15.9398 8.84596 15.8326 8.7388C15.7255 8.63163 15.5801 8.57143 15.4286 8.57143H0.571429C0.419876 8.57143 0.274531 8.63163 0.167368 8.7388C0.0602039 8.84596 0 8.9913 0 9.14286L0 10.2857C0 10.4373 0.0602039 10.5826 0.167368 10.6898C0.274531 10.7969 0.419876 10.8571 0.571429 10.8571ZM15.4286 17.7143H0.571429C0.419876 17.7143 0.274531 17.7745 0.167368 17.8817C0.0602039 17.9888 0 18.1342 0 18.2857L0 19.4286C0 19.5801 0.0602039 19.7255 0.167368 19.8326C0.274531 19.9398 0.419876 20 0.571429 20H15.4286C15.5801 20 15.7255 19.9398 15.8326 19.8326C15.9398 19.7255 16 19.5801 16 19.4286V18.2857C16 18.1342 15.9398 17.9888 15.8326 17.8817C15.7255 17.7745 15.5801 17.7143 15.4286 17.7143ZM15.5418 4H6.1725C6.11231 3.99995 6.05271 4.01177 5.99709 4.03478C5.94148 4.05779 5.89095 4.09154 5.84839 4.1341C5.80583 4.17666 5.77208 4.22719 5.74907 4.28281C5.72606 4.33842 5.71424 4.39803 5.71429 4.45821V5.8275C5.71424 5.88769 5.72606 5.94729 5.74907 6.00291C5.77208 6.05852 5.80583 6.10905 5.84839 6.15161C5.89095 6.19417 5.94148 6.22792 5.99709 6.25093C6.05271 6.27394 6.11231 6.28576 6.1725 6.28571H15.5418C15.602 6.28576 15.6616 6.27394 15.7172 6.25093C15.7728 6.22792 15.8233 6.19417 15.8659 6.15161C15.9085 6.10905 15.9422 6.05852 15.9652 6.00291C15.9882 5.94729 16 5.88769 16 5.8275V4.45821C16 4.39803 15.9882 4.33842 15.9652 4.28281C15.9422 4.22719 15.9085 4.17666 15.8659 4.1341C15.8233 4.09154 15.7728 4.05779 15.7172 4.03478C15.6616 4.01177 15.602 3.99995 15.5418 4ZM15.5418 13.1429H6.1725C6.11231 13.1428 6.05271 13.1546 5.99709 13.1776C5.94148 13.2007 5.89095 13.2344 5.84839 13.277C5.80583 13.3195 5.77208 13.3701 5.74907 13.4257C5.72606 13.4813 5.71424 13.5409 5.71429 13.6011V14.9704C5.71424 15.0305 5.72606 15.0901 5.74907 15.1458C5.77208 15.2014 5.80583 15.2519 5.84839 15.2945C5.89095 15.337 5.94148 15.3708 5.99709 15.3938C6.05271 15.4168 6.11231 15.4286 6.1725 15.4286H15.5418C15.602 15.4286 15.6616 15.4168 15.7172 15.3938C15.7728 15.3708 15.8233 15.337 15.8659 15.2945C15.9085 15.2519 15.9422 15.2014 15.9652 15.1458C15.9882 15.0901 16 15.0305 16 14.9704V13.6011C16 13.5409 15.9882 13.4813 15.9652 13.4257C15.9422 13.3701 15.9085 13.3195 15.8659 13.277C15.8233 13.2344 15.7728 13.2007 15.7172 13.1776C15.6616 13.1546 15.602 13.1428 15.5418 13.1429Z" fill="black"/>
</svg>
