<svg width="50" height="16" viewBox="0 0 50 16" fill="none" xmlns="http://www.w3.org/2000/svg">
<path d="M27.1429 0H50L40.8571 16H18L27.1429 0Z" fill="black"/>
<path d="M4.57143 8H19.4286C19.5801 8 19.7255 7.94732 19.8326 7.85355C19.9398 7.75979 20 7.63261 20 7.5V6.5C20 6.36739 19.9398 6.24021 19.8326 6.14645C19.7255 6.05268 19.5801 6 19.4286 6H4.57143C4.41988 6 4.27453 6.05268 4.16737 6.14645C4.0602 6.24021 4 6.36739 4 6.5V7.5C4 7.63261 4.0602 7.75979 4.16737 7.85355C4.27453 7.94732 4.41988 8 4.57143 8ZM15.4286 14H0.571429C0.419876 14 0.274531 14.0527 0.167368 14.1464C0.0602039 14.2402 0 14.3674 0 14.5L0 15.5C0 15.6326 0.0602039 15.7598 0.167368 15.8536C0.274531 15.9473 0.419876 16 0.571429 16H15.4286C15.5801 16 15.7255 15.9473 15.8326 15.8536C15.9398 15.7598 16 15.6326 16 15.5V14.5C16 14.3674 15.9398 14.2402 15.8326 14.1464C15.7255 14.0527 15.5801 14 15.4286 14ZM22.5418 2H13.1725C13.1123 1.99996 13.0527 2.0103 12.9971 2.03044C12.9415 2.05057 12.8909 2.0801 12.8484 2.11734C12.8058 2.15458 12.7721 2.19879 12.7491 2.24746C12.7261 2.29612 12.7142 2.34827 12.7143 2.40094V3.59906C12.7142 3.65173 12.7261 3.70388 12.7491 3.75254C12.7721 3.80121 12.8058 3.84542 12.8484 3.88266C12.8909 3.9199 12.9415 3.94943 12.9971 3.96956C13.0527 3.9897 13.1123 4.00004 13.1725 4H22.5418C22.602 4.00004 22.6616 3.9897 22.7172 3.96956C22.7728 3.94943 22.8233 3.9199 22.8659 3.88266C22.9085 3.84542 22.9422 3.80121 22.9652 3.75254C22.9882 3.70388 23 3.65173 23 3.59906V2.40094C23 2.34827 22.9882 2.29612 22.9652 2.24746C22.9422 2.19879 22.9085 2.15458 22.8659 2.11734C22.8233 2.0801 22.7728 2.05057 22.7172 2.03044C22.6616 2.0103 22.602 1.99996 22.5418 2ZM17.5418 10H8.1725C8.11231 9.99996 8.05271 10.0103 7.99709 10.0304C7.94148 10.0506 7.89095 10.0801 7.84839 10.1173C7.80583 10.1546 7.77208 10.1988 7.74907 10.2475C7.72606 10.2961 7.71424 10.3483 7.71429 10.4009V11.5991C7.71424 11.6517 7.72606 11.7039 7.74907 11.7525C7.77208 11.8012 7.80583 11.8454 7.84839 11.8827C7.89095 11.9199 7.94148 11.9494 7.99709 11.9696C8.05271 11.9897 8.11231 12 8.1725 12H17.5418C17.602 12 17.6616 11.9897 17.7172 11.9696C17.7728 11.9494 17.8233 11.9199 17.8659 11.8827C17.9085 11.8454 17.9422 11.8012 17.9652 11.7525C17.9882 11.7039 18 11.6517 18 11.5991V10.4009C18 10.3483 17.9882 10.2961 17.9652 10.2475C17.9422 10.1988 17.9085 10.1546 17.8659 10.1173C17.8233 10.0801 17.7728 10.0506 17.7172 10.0304C17.6616 10.0103 17.602 9.99996 17.5418 10Z" fill="black"/>
</svg>
