<svg width="45" height="53" viewBox="0 0 45 53" fill="none" xmlns="http://www.w3.org/2000/svg">
<path d="M8 8L37 15V45L8 38V8Z" stroke="black" stroke-width="2" stroke-linecap="square" stroke-dasharray="4 4"/>
<line x1="22" y1="4.37114e-08" x2="22" y2="53" stroke="black" stroke-width="2"/>
<path d="M41.5584 34.5261C40.8312 35.5971 39.7175 36.2581 38.4699 36.5034L39.1366 39.0818L35 36.2732L37.4698 32.6357L38.1402 35.2285C39.0548 35.0287 39.8714 34.538 40.4093 33.7459C41.3807 32.3152 41.145 30.3777 39.967 28.9579L40.9758 28.2434C42.5202 30.1128 42.8344 32.6467 41.5584 34.5261Z" fill="black"/>
<path d="M0.899863 21.156C0.991751 19.8646 1.62358 18.7342 2.57992 17.8962L0.709793 16L5.69718 16.3549L5.38511 20.7405L3.50459 18.8338C2.81358 19.4653 2.35321 20.2995 2.28525 21.2545C2.1625 22.9795 3.33823 24.5374 5.06957 25.1748L4.55515 26.2989C2.28144 25.4564 0.738625 23.4218 0.899863 21.156Z" fill="black"/>
</svg>
