<svg width="40" height="20" viewBox="0 0 40 20" fill="none" xmlns="http://www.w3.org/2000/svg">
<rect x="13.5" y="7.5" width="12" height="12" stroke="black" stroke-dasharray="2 2"/>
<rect x="20" width="20" height="20" fill="black"/>
<path d="M0.357143 14.2857H9.64286C9.73758 14.2857 9.82842 14.2481 9.8954 14.1811C9.96237 14.1141 10 14.0233 10 13.9286V13.2143C10 13.1196 9.96237 13.0287 9.8954 12.9617C9.82842 12.8948 9.73758 12.8571 9.64286 12.8571H0.357143C0.262423 12.8571 0.171582 12.8948 0.104605 12.9617C0.0376275 13.0287 0 13.1196 0 13.2143L0 13.9286C0 14.0233 0.0376275 14.1141 0.104605 14.1811C0.171582 14.2481 0.262423 14.2857 0.357143 14.2857ZM9.64286 18.5714H0.357143C0.262423 18.5714 0.171582 18.6091 0.104605 18.676C0.0376275 18.743 0 18.8339 0 18.9286L0 19.6429C0 19.7376 0.0376275 19.8284 0.104605 19.8954C0.171582 19.9624 0.262423 20 0.357143 20H9.64286C9.73758 20 9.82842 19.9624 9.8954 19.8954C9.96237 19.8284 10 19.7376 10 19.6429V18.9286C10 18.8339 9.96237 18.743 9.8954 18.676C9.82842 18.6091 9.73758 18.5714 9.64286 18.5714ZM9.71362 10H3.85781C3.8202 9.99997 3.78294 10.0074 3.74818 10.0217C3.71342 10.0361 3.68184 10.0572 3.65524 10.0838C3.62864 10.1104 3.60755 10.142 3.59317 10.1768C3.57879 10.2115 3.5714 10.2488 3.57143 10.2864V11.1422C3.5714 11.1798 3.57879 11.2171 3.59317 11.2518C3.60755 11.2866 3.62864 11.3182 3.65524 11.3448C3.68184 11.3714 3.71342 11.3924 3.74818 11.4068C3.78294 11.4212 3.8202 11.4286 3.85781 11.4286H9.71362C9.75123 11.4286 9.78849 11.4212 9.82325 11.4068C9.858 11.3924 9.88959 11.3714 9.91619 11.3448C9.94279 11.3182 9.96388 11.2866 9.97826 11.2518C9.99264 11.2171 10 11.1798 10 11.1422V10.2864C10 10.2488 9.99264 10.2115 9.97826 10.1768C9.96388 10.142 9.94279 10.1104 9.91619 10.0838C9.88959 10.0572 9.858 10.0361 9.82325 10.0217C9.78849 10.0074 9.75123 9.99997 9.71362 10ZM9.71362 15.7143H3.85781C3.8202 15.7143 3.78294 15.7216 3.74818 15.736C3.71342 15.7504 3.68184 15.7715 3.65524 15.7981C3.62864 15.8247 3.60755 15.8563 3.59317 15.891C3.57879 15.9258 3.5714 15.9631 3.57143 16.0007V16.8565C3.5714 16.8941 3.57879 16.9313 3.59317 16.9661C3.60755 17.0009 3.62864 17.0324 3.65524 17.059C3.68184 17.0856 3.71342 17.1067 3.74818 17.1211C3.78294 17.1355 3.8202 17.1429 3.85781 17.1429H9.71362C9.75123 17.1429 9.78849 17.1355 9.82325 17.1211C9.858 17.1067 9.88959 17.0856 9.91619 17.059C9.94279 17.0324 9.96388 17.0009 9.97826 16.9661C9.99264 16.9313 10 16.8941 10 16.8565V16.0007C10 15.9631 9.99264 15.9258 9.97826 15.891C9.96388 15.8563 9.94279 15.8247 9.91619 15.7981C9.88959 15.7715 9.858 15.7504 9.82325 15.736C9.78849 15.7216 9.75123 15.7143 9.71362 15.7143Z" fill="black"/>
</svg>
