<svg width="430" height="430" viewBox="0 0 430 430" fill="none" xmlns="http://www.w3.org/2000/svg">
<rect width="430" height="430" fill="#F5EB1C"/>
<rect x="6" y="6" width="418" height="418" fill="#FEFEFD"/>
<rect x="106" y="106" width="304" height="304" fill="#F5EB1C"/>
<path d="M113.788 403C112.488 402.7 113.188 401.6 113.188 400.9C113.188 351.7 113.188 302.6 113.188 253.4C113.188 207 113.188 160.6 113.088 114.3C113.088 112.5 113.488 112.1 115.288 112.1C129.388 112.2 143.388 111.9 157.488 112.2C190.188 112.8 219.888 122.3 245.388 143.2C266.188 160.2 280.188 181.9 285.288 208.5C291.288 239.7 284.288 268.3 265.288 293.7C246.488 318.8 221.088 333.9 190.888 341.5C180.488 344.1 169.788 345.4 158.988 345.5C156.988 345.5 156.688 346.1 156.688 347.9C156.788 365.6 156.688 383.3 156.788 400.9C156.788 402.5 156.688 403.6 154.688 403C154.088 402.4 153.288 402.6 152.488 402.6C140.288 402.6 128.088 402.6 115.888 402.6C115.188 402.6 114.388 402.4 113.788 403Z" fill="#36459C"/>
<path d="M346.088 403C343.388 403.5 344.788 402 345.288 401.2C350.788 392.4 355.488 383.2 359.388 373.6C365.488 358.7 369.688 343.2 371.788 327.2C373.588 314.1 373.988 300.9 373.088 287.7C371.288 261.8 364.288 237.4 352.488 214.3C340.688 191.3 324.788 171.6 304.888 155.1C280.888 135.2 253.488 122 222.888 115.6C219.888 115 216.788 114.3 213.788 113.8C210.788 113.3 207.888 113 204.888 112C205.988 112 207.188 112 208.288 112C272.388 112 336.488 112 400.588 112C402.988 112 403.588 112.5 403.588 115C403.488 210.1 403.488 305.2 403.488 400.3C403.488 401.1 404.588 402.8 402.488 402.9C401.788 402.2 400.888 402.5 400.088 402.5C382.888 402.5 365.588 402.5 348.388 402.5C347.688 402.6 346.788 402.4 346.088 403Z" fill="#36459C"/>
<path d="M27.888 95V60.296H40.464C45.008 60.296 48.376 61.08 50.568 62.648C52.776 64.2 53.88 66.448 53.88 69.392C53.88 71.12 53.44 72.624 52.56 73.904C51.68 75.168 50.112 76.272 47.856 77.216C49.312 77.584 50.488 78.08 51.384 78.704C52.28 79.328 52.968 80.024 53.448 80.792C53.928 81.544 54.256 82.336 54.432 83.168C54.608 83.984 54.696 84.792 54.696 85.592C54.696 88.792 53.608 91.16 51.432 92.696C49.256 94.232 45.792 95 41.04 95H27.888ZM34.872 89.576H41.184C43.296 89.576 44.888 89.152 45.96 88.304C47.048 87.456 47.592 86.32 47.592 84.896C47.592 83.872 47.328 83.016 46.8 82.328C46.272 81.624 45.552 81.096 44.64 80.744C43.744 80.392 42.72 80.216 41.568 80.216H34.872V89.576ZM34.872 74.648H41.568C42.288 74.648 42.976 74.568 43.632 74.408C44.304 74.232 44.896 73.968 45.408 73.616C45.936 73.264 46.352 72.816 46.656 72.272C46.96 71.712 47.112 71.056 47.112 70.304C47.112 68.8 46.544 67.664 45.408 66.896C44.288 66.112 42.848 65.72 41.088 65.72H34.872V74.648ZM57.6638 95L70.0958 60.296H77.4878L89.8958 95H82.9117L80.0798 86.96H67.5998L64.6958 95H57.6638ZM69.1598 80.84H78.3998L73.8158 67.064L69.1598 80.84ZM107.555 59.816C110.163 59.816 112.483 60.344 114.515 61.4C116.563 62.44 118.211 63.864 119.459 65.672C120.723 67.48 121.467 69.52 121.691 71.792H114.347C114.123 70.592 113.715 69.528 113.123 68.6C112.531 67.656 111.755 66.92 110.795 66.392C109.835 65.848 108.683 65.576 107.339 65.576C105.723 65.576 104.331 65.968 103.163 66.752C101.995 67.536 101.099 68.8 100.475 70.544C99.8513 72.288 99.5393 74.592 99.5393 77.456C99.5393 81.776 100.227 84.904 101.603 86.84C102.995 88.76 104.907 89.72 107.339 89.72C108.683 89.72 109.835 89.416 110.795 88.808C111.755 88.184 112.531 87.368 113.123 86.36C113.715 85.336 114.123 84.216 114.347 83H121.691C121.483 84.648 121.083 86.224 120.491 87.728C119.899 89.216 119.059 90.544 117.971 91.712C116.883 92.88 115.483 93.8 113.771 94.472C112.059 95.144 109.987 95.48 107.555 95.48C104.323 95.48 101.531 94.728 99.1793 93.224C96.8273 91.72 95.0113 89.608 93.7313 86.888C92.4673 84.168 91.8353 80.992 91.8353 77.36C91.8353 73.712 92.4673 70.584 93.7313 67.976C94.9953 65.352 96.8033 63.336 99.1553 61.928C101.507 60.52 104.307 59.816 107.555 59.816ZM150.048 80.096H134.856V95H127.872V60.296H134.856V74.216H150.048V60.296H157.056V95H150.048V80.096ZM204.214 95H196.582L187.39 78.848L182.254 85.04V95H174.982V60.296H182.254V76.184L194.902 60.296H202.942L192.406 73.736L204.214 95ZM231.564 80.096H216.372V95H209.388V60.296H216.372V74.216H231.564V60.296H238.572V95H231.564V80.096ZM260.75 95.48C257.47 95.48 254.63 94.768 252.23 93.344C249.846 91.904 247.998 89.864 246.686 87.224C245.39 84.568 244.742 81.4 244.742 77.72C244.742 74.024 245.398 70.84 246.71 68.168C248.038 65.496 249.902 63.44 252.302 62C254.702 60.544 257.518 59.816 260.75 59.816C263.966 59.816 266.766 60.536 269.15 61.976C271.534 63.416 273.374 65.472 274.67 68.144C275.982 70.816 276.638 74.008 276.638 77.72C276.638 81.384 275.99 84.544 274.694 87.2C273.414 89.856 271.582 91.904 269.198 93.344C266.814 94.768 263.998 95.48 260.75 95.48ZM260.75 89.72C262.446 89.72 263.91 89.32 265.142 88.52C266.39 87.704 267.35 86.424 268.022 84.68C268.694 82.92 269.03 80.632 269.03 77.816C269.03 74.92 268.686 72.576 267.998 70.784C267.326 68.992 266.366 67.68 265.118 66.848C263.886 66 262.43 65.576 260.75 65.576C259.07 65.576 257.606 66 256.358 66.848C255.11 67.68 254.142 69 253.454 70.808C252.766 72.6 252.422 74.936 252.422 77.816C252.422 80.648 252.766 82.936 253.454 84.68C254.142 86.424 255.11 87.704 256.358 88.52C257.606 89.32 259.07 89.72 260.75 89.72ZM278.492 95L290.924 60.296H298.316L310.724 95H303.74L300.908 86.96H288.428L285.524 95H278.492ZM289.988 80.84H299.228L294.644 67.064L289.988 80.84Z" fill="#C72628"/>
<path d="M87.4453 32.5391C87.4453 36.3672 86.7656 39.5781 85.4062 42.1719C84.0625 44.7656 82.0625 46.7188 79.4062 48.0312C76.7656 49.3438 73.4922 50 69.5859 50H61.3828V15.7344H70.6641C74.3203 15.7344 77.3906 16.375 79.875 17.6562C82.3594 18.9375 84.2422 20.8281 85.5234 23.3281C86.8047 25.8125 87.4453 28.8828 87.4453 32.5391ZM84.9141 32.6328C84.9141 29.3672 84.3828 26.6406 83.3203 24.4531C82.2578 22.2656 80.6328 20.625 78.4453 19.5312C76.2578 18.4219 73.4844 17.8672 70.125 17.8672H63.7969V47.8672H69.4688C74.6406 47.8672 78.5078 46.6016 81.0703 44.0703C83.6328 41.5234 84.9141 37.7109 84.9141 32.6328ZM85.9453 158H83.4844L63.2344 127.695H63.1172C63.1484 128.539 63.1719 129.398 63.1875 130.273C63.2188 131.133 63.2422 132.023 63.2578 132.945C63.2891 133.852 63.3047 134.789 63.3047 135.758V158H61.0078V123.734H63.4922L83.6719 153.945H83.7891C83.7734 153.258 83.75 152.461 83.7188 151.555C83.7031 150.648 83.6797 149.719 83.6484 148.766C83.6328 147.812 83.625 146.914 83.625 146.07V123.734H85.9453V158ZM85.3594 212L80.6953 199.883H66.3047L61.5469 212H59.0859L72.5625 177.617H74.7656L87.8906 212H85.3594ZM79.9219 197.703L75.1875 184.859C75.0625 184.531 74.9062 184.109 74.7188 183.594C74.5469 183.078 74.3594 182.531 74.1562 181.953C73.9688 181.375 73.7812 180.828 73.5938 180.312C73.4375 180.859 73.2656 181.406 73.0781 181.953C72.8906 182.5 72.7109 183.031 72.5391 183.547C72.3672 184.047 72.2031 184.5 72.0469 184.906L67.125 197.703H79.9219ZM85.9453 266H83.4844L63.2344 235.695H63.1172C63.1484 236.539 63.1719 237.398 63.1875 238.273C63.2188 239.133 63.2422 240.023 63.2578 240.945C63.2891 241.852 63.3047 242.789 63.3047 243.758V266H61.0078V231.734H63.4922L83.6719 261.945H83.7891C83.7734 261.258 83.75 260.461 83.7188 259.555C83.7031 258.648 83.6797 257.719 83.6484 256.766C83.6328 255.812 83.625 254.914 83.625 254.07V231.734H85.9453V266ZM74.4844 302.703H87.0703V318.43C85.4297 319.117 83.6797 319.633 81.8203 319.977C79.9609 320.305 77.9844 320.469 75.8906 320.469C72.25 320.469 69.1797 319.781 66.6797 318.406C64.1953 317.016 62.3125 315.008 61.0312 312.383C59.75 309.758 59.1094 306.602 59.1094 302.914C59.1094 299.477 59.8047 296.422 61.1953 293.75C62.6016 291.078 64.6094 288.984 67.2188 287.469C69.8281 285.953 72.9531 285.195 76.5938 285.195C78.4688 285.195 80.2344 285.367 81.8906 285.711C83.5625 286.055 85.1484 286.57 86.6484 287.258L85.6875 289.414C84.2031 288.727 82.6875 288.211 81.1406 287.867C79.6094 287.523 78.0547 287.352 76.4766 287.352C73.3828 287.352 70.7188 288.016 68.4844 289.344C66.2656 290.656 64.5625 292.484 63.375 294.828C62.2031 297.156 61.6172 299.844 61.6172 302.891C61.6172 306.344 62.1875 309.211 63.3281 311.492C64.4688 313.773 66.1328 315.484 68.3203 316.625C70.5234 317.766 73.1953 318.336 76.3359 318.336C78.0547 318.336 79.5938 318.211 80.9531 317.961C82.3281 317.711 83.5703 317.383 84.6797 316.977V304.906H74.4844V302.703Z" fill="#36459C"/>
</svg>
